<?xml version="1.0" encoding="UTF-8"?>
<svg xmlns="http://www.w3.org/2000/svg" version="1.1" width="300" height="300" viewBox="0 0 300 300"><rect x="0" y="0" width="300" height="300" fill="#ffffff"/><g transform="scale(14.286)"><g transform="translate(0,0)"><path fill-rule="evenodd" d="M10 0L10 3L12 3L12 4L8 4L8 8L6 8L6 9L7 9L7 10L6 10L6 11L7 11L7 12L6 12L6 13L8 13L8 15L9 15L9 17L8 17L8 18L9 18L9 19L8 19L8 21L9 21L9 19L11 19L11 20L10 20L10 21L11 21L11 20L13 20L13 21L14 21L14 20L13 20L13 19L15 19L15 20L16 20L16 21L19 21L19 20L17 20L17 18L16 18L16 17L15 17L15 16L16 16L16 15L17 15L17 16L18 16L18 17L19 17L19 18L18 18L18 19L19 19L19 18L20 18L20 20L21 20L21 16L20 16L20 15L19 15L19 14L18 14L18 13L19 13L19 12L20 12L20 14L21 14L21 9L20 9L20 8L18 8L18 9L17 9L17 8L14 8L14 9L13 9L13 8L10 8L10 9L9 9L9 10L8 10L8 8L9 8L9 6L10 6L10 7L11 7L11 5L13 5L13 3L12 3L12 2L13 2L13 0L12 0L12 2L11 2L11 0ZM8 1L8 3L9 3L9 1ZM12 6L12 7L13 7L13 6ZM0 8L0 9L1 9L1 10L0 10L0 11L2 11L2 13L3 13L3 11L4 11L4 13L5 13L5 11L4 11L4 10L5 10L5 9L4 9L4 8L3 8L3 10L2 10L2 8ZM12 9L12 11L11 11L11 12L12 12L12 13L10 13L10 12L9 12L9 11L10 11L10 10L9 10L9 11L8 11L8 10L7 10L7 11L8 11L8 13L10 13L10 14L9 14L9 15L10 15L10 17L9 17L9 18L12 18L12 19L13 19L13 17L12 17L12 16L14 16L14 14L13 14L13 12L12 12L12 11L14 11L14 10L15 10L15 9L14 9L14 10L13 10L13 9ZM16 9L16 10L17 10L17 12L16 12L16 13L18 13L18 12L19 12L19 11L18 11L18 10L20 10L20 9L18 9L18 10L17 10L17 9ZM10 14L10 15L13 15L13 14ZM15 14L15 15L16 15L16 14ZM18 15L18 16L19 16L19 17L20 17L20 16L19 16L19 15ZM15 18L15 19L16 19L16 18ZM0 0L0 7L7 7L7 0ZM1 1L1 6L6 6L6 1ZM2 2L2 5L5 5L5 2ZM14 0L14 7L21 7L21 0ZM15 1L15 6L20 6L20 1ZM16 2L16 5L19 5L19 2ZM0 14L0 21L7 21L7 14ZM1 15L1 20L6 20L6 15ZM2 16L2 19L5 19L5 16Z" fill="#000000"/></g></g></svg>
