<?xml version="1.0" encoding="UTF-8"?>
<svg xmlns="http://www.w3.org/2000/svg" version="1.1" width="300" height="300" viewBox="0 0 300 300"><rect x="0" y="0" width="300" height="300" fill="#ffffff"/><g transform="scale(14.286)"><g transform="translate(0,0)"><path fill-rule="evenodd" d="M9 0L9 3L8 3L8 5L9 5L9 4L10 4L10 7L9 7L9 6L8 6L8 7L9 7L9 10L8 10L8 8L5 8L5 9L3 9L3 10L2 10L2 8L0 8L0 13L3 13L3 11L4 11L4 10L5 10L5 11L8 11L8 12L9 12L9 11L12 11L12 10L13 10L13 11L14 11L14 10L15 10L15 9L14 9L14 10L13 10L13 4L12 4L12 3L10 3L10 1L11 1L11 2L12 2L12 1L13 1L13 0ZM11 5L11 7L12 7L12 5ZM10 8L10 9L11 9L11 10L12 10L12 8ZM16 8L16 12L17 12L17 13L18 13L18 18L16 18L16 17L17 17L17 15L16 15L16 14L15 14L15 12L14 12L14 13L10 13L10 14L9 14L9 13L8 13L8 16L10 16L10 17L9 17L9 18L10 18L10 19L11 19L11 18L10 18L10 17L11 17L11 16L12 16L12 18L13 18L13 16L14 16L14 15L16 15L16 16L15 16L15 18L14 18L14 19L15 19L15 21L17 21L17 19L18 19L18 21L19 21L19 19L20 19L20 20L21 20L21 18L19 18L19 17L20 17L20 16L21 16L21 15L20 15L20 16L19 16L19 13L20 13L20 14L21 14L21 12L19 12L19 10L20 10L20 9L18 9L18 8ZM5 9L5 10L7 10L7 9ZM17 9L17 12L18 12L18 9ZM1 10L1 11L2 11L2 10ZM4 12L4 13L5 13L5 12ZM6 12L6 13L7 13L7 12ZM10 14L10 15L12 15L12 14ZM13 14L13 15L14 15L14 14ZM15 18L15 19L16 19L16 18ZM18 18L18 19L19 19L19 18ZM8 19L8 21L9 21L9 19ZM10 20L10 21L12 21L12 20ZM13 20L13 21L14 21L14 20ZM0 0L0 7L7 7L7 0ZM1 1L1 6L6 6L6 1ZM2 2L2 5L5 5L5 2ZM14 0L14 7L21 7L21 0ZM15 1L15 6L20 6L20 1ZM16 2L16 5L19 5L19 2ZM0 14L0 21L7 21L7 14ZM1 15L1 20L6 20L6 15ZM2 16L2 19L5 19L5 16Z" fill="#000000"/></g></g></svg>
