<?xml version="1.0" encoding="UTF-8"?>
<svg xmlns="http://www.w3.org/2000/svg" version="1.1" width="300" height="300" viewBox="0 0 300 300"><rect x="0" y="0" width="300" height="300" fill="#ffffff"/><g transform="scale(14.286)"><g transform="translate(0,0)"><path fill-rule="evenodd" d="M10 0L10 1L11 1L11 0ZM12 0L12 2L13 2L13 0ZM8 2L8 3L9 3L9 2ZM10 2L10 3L11 3L11 2ZM12 3L12 4L11 4L11 5L10 5L10 4L9 4L9 6L8 6L8 8L4 8L4 9L3 9L3 8L0 8L0 10L1 10L1 11L0 11L0 13L1 13L1 11L2 11L2 12L3 12L3 13L8 13L8 17L9 17L9 15L11 15L11 14L9 14L9 11L11 11L11 13L12 13L12 12L13 12L13 13L14 13L14 14L16 14L16 15L14 15L14 17L13 17L13 16L12 16L12 17L11 17L11 16L10 16L10 18L8 18L8 21L9 21L9 20L11 20L11 21L12 21L12 20L13 20L13 21L15 21L15 20L16 20L16 19L15 19L15 18L18 18L18 21L19 21L19 20L20 20L20 21L21 21L21 18L20 18L20 17L21 17L21 16L20 16L20 15L21 15L21 12L20 12L20 11L21 11L21 9L20 9L20 11L19 11L19 10L18 10L18 9L19 9L19 8L18 8L18 9L17 9L17 10L18 10L18 11L16 11L16 9L15 9L15 8L12 8L12 9L11 9L11 6L12 6L12 7L13 7L13 6L12 6L12 5L13 5L13 3ZM9 6L9 9L8 9L8 10L7 10L7 9L6 9L6 10L5 10L5 11L4 11L4 10L3 10L3 9L2 9L2 10L3 10L3 11L4 11L4 12L5 12L5 11L6 11L6 12L7 12L7 11L8 11L8 10L11 10L11 9L10 9L10 6ZM12 9L12 11L13 11L13 9ZM14 9L14 10L15 10L15 9ZM6 10L6 11L7 11L7 10ZM14 11L14 12L15 12L15 11ZM18 11L18 12L16 12L16 14L17 14L17 15L16 15L16 16L15 16L15 17L14 17L14 18L15 18L15 17L18 17L18 18L19 18L19 19L20 19L20 18L19 18L19 17L18 17L18 16L19 16L19 15L20 15L20 14L19 14L19 13L20 13L20 12L19 12L19 11ZM18 12L18 13L17 13L17 14L18 14L18 15L17 15L17 16L18 16L18 15L19 15L19 14L18 14L18 13L19 13L19 12ZM12 14L12 15L13 15L13 14ZM12 17L12 19L13 19L13 17ZM10 18L10 19L11 19L11 18ZM14 19L14 20L15 20L15 19ZM0 0L0 7L7 7L7 0ZM1 1L1 6L6 6L6 1ZM2 2L2 5L5 5L5 2ZM14 0L14 7L21 7L21 0ZM15 1L15 6L20 6L20 1ZM16 2L16 5L19 5L19 2ZM0 14L0 21L7 21L7 14ZM1 15L1 20L6 20L6 15ZM2 16L2 19L5 19L5 16Z" fill="#000000"/></g></g></svg>
