<?xml version="1.0" encoding="UTF-8"?>
<svg xmlns="http://www.w3.org/2000/svg" version="1.1" width="300" height="300" viewBox="0 0 300 300"><rect x="0" y="0" width="300" height="300" fill="#ffffff"/><g transform="scale(14.286)"><g transform="translate(0,0)"><path fill-rule="evenodd" d="M8 0L8 1L9 1L9 2L8 2L8 5L11 5L11 4L12 4L12 3L13 3L13 0L12 0L12 3L11 3L11 2L10 2L10 0ZM9 2L9 4L11 4L11 3L10 3L10 2ZM8 6L8 7L9 7L9 8L8 8L8 9L9 9L9 8L10 8L10 9L11 9L11 6L10 6L10 7L9 7L9 6ZM12 6L12 7L13 7L13 6ZM0 8L0 13L4 13L4 12L6 12L6 13L8 13L8 14L10 14L10 13L12 13L12 12L13 12L13 15L11 15L11 16L10 16L10 17L8 17L8 21L9 21L9 20L11 20L11 21L13 21L13 19L14 19L14 20L16 20L16 21L17 21L17 20L18 20L18 19L19 19L19 18L20 18L20 17L21 17L21 16L19 16L19 15L20 15L20 14L19 14L19 15L18 15L18 16L17 16L17 17L15 17L15 16L16 16L16 15L17 15L17 14L18 14L18 13L19 13L19 12L20 12L20 11L21 11L21 8L20 8L20 9L19 9L19 8L16 8L16 9L15 9L15 10L13 10L13 9L14 9L14 8L13 8L13 9L12 9L12 12L9 12L9 13L8 13L8 10L6 10L6 9L7 9L7 8L6 8L6 9L5 9L5 10L4 10L4 8ZM16 9L16 10L18 10L18 11L14 11L14 14L15 14L15 15L16 15L16 14L17 14L17 13L18 13L18 12L19 12L19 11L20 11L20 10L18 10L18 9ZM1 10L1 12L2 12L2 10ZM3 10L3 12L4 12L4 10ZM5 10L5 11L6 11L6 12L7 12L7 11L6 11L6 10ZM9 10L9 11L11 11L11 10ZM16 12L16 13L17 13L17 12ZM12 16L12 17L11 17L11 18L10 18L10 19L11 19L11 18L12 18L12 19L13 19L13 17L14 17L14 19L15 19L15 17L14 17L14 16ZM18 16L18 17L17 17L17 19L16 19L16 20L17 20L17 19L18 19L18 18L19 18L19 16ZM19 20L19 21L20 21L20 20ZM0 0L0 7L7 7L7 0ZM1 1L1 6L6 6L6 1ZM2 2L2 5L5 5L5 2ZM14 0L14 7L21 7L21 0ZM15 1L15 6L20 6L20 1ZM16 2L16 5L19 5L19 2ZM0 14L0 21L7 21L7 14ZM1 15L1 20L6 20L6 15ZM2 16L2 19L5 19L5 16Z" fill="#000000"/></g></g></svg>
