<?xml version="1.0" encoding="UTF-8"?>
<svg xmlns="http://www.w3.org/2000/svg" version="1.1" width="300" height="300" viewBox="0 0 300 300"><rect x="0" y="0" width="300" height="300" fill="#ffffff"/><g transform="scale(14.286)"><g transform="translate(0,0)"><path fill-rule="evenodd" d="M8 0L8 2L9 2L9 4L8 4L8 9L7 9L7 8L5 8L5 9L4 9L4 10L3 10L3 8L0 8L0 10L1 10L1 9L2 9L2 10L3 10L3 11L2 11L2 12L1 12L1 11L0 11L0 12L1 12L1 13L2 13L2 12L3 12L3 11L4 11L4 13L5 13L5 11L7 11L7 12L6 12L6 13L8 13L8 14L9 14L9 15L8 15L8 16L9 16L9 18L8 18L8 21L11 21L11 20L10 20L10 19L11 19L11 18L10 18L10 14L9 14L9 12L10 12L10 13L11 13L11 17L16 17L16 16L15 16L15 15L21 15L21 12L17 12L17 11L21 11L21 8L19 8L19 10L17 10L17 11L16 11L16 12L17 12L17 13L20 13L20 14L15 14L15 12L14 12L14 13L13 13L13 14L12 14L12 13L11 13L11 12L10 12L10 11L11 11L11 10L10 10L10 11L9 11L9 12L8 12L8 9L17 9L17 8L12 8L12 7L13 7L13 6L12 6L12 7L11 7L11 5L10 5L10 7L9 7L9 4L10 4L10 3L11 3L11 4L12 4L12 5L13 5L13 3L12 3L12 2L13 2L13 0ZM10 1L10 2L11 2L11 1ZM5 9L5 10L4 10L4 11L5 11L5 10L7 10L7 9ZM14 10L14 11L15 11L15 10ZM12 11L12 12L13 12L13 11ZM14 14L14 15L15 15L15 14ZM12 15L12 16L13 16L13 15ZM17 16L17 17L19 17L19 16ZM20 16L20 17L21 17L21 16ZM14 18L14 19L15 19L15 20L14 20L14 21L15 21L15 20L16 20L16 21L21 21L21 18L18 18L18 20L17 20L17 18ZM12 19L12 20L13 20L13 19ZM19 19L19 20L20 20L20 19ZM0 0L0 7L7 7L7 0ZM1 1L1 6L6 6L6 1ZM2 2L2 5L5 5L5 2ZM14 0L14 7L21 7L21 0ZM15 1L15 6L20 6L20 1ZM16 2L16 5L19 5L19 2ZM0 14L0 21L7 21L7 14ZM1 15L1 20L6 20L6 15ZM2 16L2 19L5 19L5 16Z" fill="#000000"/></g></g></svg>
