<?xml version="1.0" encoding="UTF-8"?>
<svg xmlns="http://www.w3.org/2000/svg" version="1.1" width="300" height="300" viewBox="0 0 300 300"><rect x="0" y="0" width="300" height="300" fill="#ffffff"/><g transform="scale(14.286)"><g transform="translate(0,0)"><path fill-rule="evenodd" d="M8 0L8 1L9 1L9 4L10 4L10 5L11 5L11 6L10 6L10 7L9 7L9 6L8 6L8 8L9 8L9 9L10 9L10 10L6 10L6 9L7 9L7 8L6 8L6 9L5 9L5 8L3 8L3 9L2 9L2 8L0 8L0 10L1 10L1 11L0 11L0 13L2 13L2 12L3 12L3 13L4 13L4 12L5 12L5 13L8 13L8 14L9 14L9 15L10 15L10 16L8 16L8 18L10 18L10 19L11 19L11 18L13 18L13 16L14 16L14 17L17 17L17 18L16 18L16 19L15 19L15 18L14 18L14 19L13 19L13 20L15 20L15 21L16 21L16 20L17 20L17 18L18 18L18 19L19 19L19 20L18 20L18 21L20 21L20 19L21 19L21 18L19 18L19 17L21 17L21 15L20 15L20 13L21 13L21 12L19 12L19 10L20 10L20 11L21 11L21 10L20 10L20 9L21 9L21 8L20 8L20 9L18 9L18 10L17 10L17 9L16 9L16 11L17 11L17 13L18 13L18 16L17 16L17 14L13 14L13 13L11 13L11 14L12 14L12 15L10 15L10 14L9 14L9 12L8 12L8 11L10 11L10 12L12 12L12 11L10 11L10 10L11 10L11 8L12 8L12 10L13 10L13 11L15 11L15 8L14 8L14 10L13 10L13 4L12 4L12 3L11 3L11 2L12 2L12 1L13 1L13 0ZM10 1L10 2L11 2L11 1ZM11 4L11 5L12 5L12 4ZM11 6L11 7L12 7L12 6ZM4 9L4 10L3 10L3 12L4 12L4 10L5 10L5 9ZM5 11L5 12L7 12L7 11ZM14 12L14 13L15 13L15 12ZM14 15L14 16L16 16L16 15ZM19 15L19 16L20 16L20 15ZM10 16L10 17L11 17L11 16ZM8 19L8 21L12 21L12 20L9 20L9 19ZM0 0L0 7L7 7L7 0ZM1 1L1 6L6 6L6 1ZM2 2L2 5L5 5L5 2ZM14 0L14 7L21 7L21 0ZM15 1L15 6L20 6L20 1ZM16 2L16 5L19 5L19 2ZM0 14L0 21L7 21L7 14ZM1 15L1 20L6 20L6 15ZM2 16L2 19L5 19L5 16Z" fill="#000000"/></g></g></svg>
